PathFileType	4	(X/Y/Z)	Patient4_TMGait_0pt3_02_right_03.trc.trc
DataRate	CameraRate	NumFrames	NumMarkers	Units	OrigDataRate	OrigDataStartFrame	OrigNumFrames
50.000000000000	50.000000000000	6	33	mm	50.000000000000	106	       141
Frame#	Time	Sacral			L.Shoulder			Chest			R.Shoulder			Neck			R.ASIS			L.ASIS			R.Thigh.Superior			R.Thigh.Lateral			R.Thigh.Inferior			R.Patella			L.Thigh.Superior			L.Thigh.Lateral			L.Thigh.Inferior			L.Patella			L.Shank.Superior			L.Shank.Lateral			L.Shank.Inferior			R.Shank.Superior			R.Shank.Lateral			R.Shank.Inferior			R.Heel			R.Midfoot.Superior			R.Midfoot.Lateral			R.Toe			L.Heel			L.Midfoot.Lateral			L.Midfoot.Superior			L.Toe			L.Elbow			L.Wrist			R.Elbow			R.Wrist			
		X1	Y1	Z1	X2	Y2	Z2	X3	Y3	Z3	X4	Y4	Z4	X5	Y5	Z5	X6	Y6	Z6	X7	Y7	Z7	X8	Y8	Z8	X9	Y9	Z9	X10	Y10	Z10	X11	Y11	Z11	X12	Y12	Z12	X13	Y13	Z13	X14	Y14	Z14	X15	Y15	Z15	X16	Y16	Z16	X17	Y17	Z17	X18	Y18	Z18	X19	Y19	Z19	X20	Y20	Z20	X21	Y21	Z21	X22	Y22	Z22	X23	Y23	Z23	X24	Y24	Z24	X25	Y25	Z25	X26	Y26	Z26	X27	Y27	Z27	X28	Y28	Z28	X29	Y29	Z29	X30	Y30	Z30	X31	Y31	Z31	X32	Y32	Z32	X33	Y33	Z33	

106	6.320000000000	678.506681411421	984.606395905368	440.977876486922	856.312080338112	1417.287816888547	257.682382254270	951.199956109862	1353.451384155551	425.240851267511	858.828385953096	1427.254286338469	594.031376992485	832.986219199396	1483.175212485962	414.941689697517	906.591113766297	934.692846548597	568.210950341409	904.638308165864	950.663022074490	293.858297033775	990.264817767711	754.310738442765	534.569548425227	944.117257357785	633.304358704230	600.799900188589	1029.884771995055	592.388483193393	516.941170903180	1042.772225311887	477.873308223282	540.495765741378	968.369410555186	743.851480354466	338.788122864083	893.346355097618	616.724188099111	285.734945833116	977.150039136998	548.882518376809	361.827365417073	980.215913299865	475.244339808111	374.842024197415	941.519148595445	400.428282735158	367.961215350276	842.135161092585	296.112551649468	313.761890588151	868.818751653255	182.738147629519	391.488949717556	961.629881514656	407.788806009272	551.766592431599	834.338881696420	376.508753906819	606.338452143662	820.562058575774	264.082893811246	565.388187479630	620.612040875489	208.066170754988	522.793958562803	781.127122842573	146.976390097220	589.983668899667	668.776884847198	158.764299722730	610.499932374509	833.837165463246	35.998225985450	639.325615648693	721.695132256622	37.782085097150	427.757773985588	797.660661709652	35.748678947200	349.024092166927	881.171949090170	94.746410686014	380.017758789852	1009.522257322506	42.902456378963	352.043144818016	908.053309616202	1069.868074388542	136.917728080711	1037.069342148441	843.765518918012	151.132081939673	876.521298266770	1072.521383698814	708.030284493185	1010.333506924050	849.349532144762	705.384753145943	
107	6.340000000000	677.839277399595	983.520792565321	438.057262736636	858.522503560710	1417.517575815407	258.555095994362	950.902358137793	1352.697979786384	427.091843347758	855.839147221947	1424.920763684570	595.207587607437	833.189005742393	1482.500497390867	416.103846261190	905.189096763879	934.486279999232	567.693122914479	905.594772180216	949.783345288370	293.240894360626	991.599443467981	756.284799458574	533.247191420684	947.817901070887	634.872781818983	599.687151438730	1033.630649816631	595.174185320726	515.247873276344	1049.109259992366	481.268127667918	538.944357790560	968.589711230005	742.493652834841	338.516267231219	893.344130387795	615.416883482610	285.462289334311	976.547837688375	547.425275678385	362.207176589360	979.356185086644	473.627160446748	375.386702768802	939.674642291349	398.884537054140	368.384216834328	839.265541356110	295.597144146738	313.972082188410	864.236611553978	181.929445402563	391.734714015368	969.869449368358	409.461068374511	550.902660924181	843.799911034504	374.515345349548	605.712250923667	833.486734026358	261.677532383044	565.167686584514	635.240325333140	197.194172324460	523.690445823926	798.586863404617	144.860193262548	589.900219503150	686.231092631367	150.810384191281	611.203662390370	857.019463090404	37.122104066005	639.113094415552	715.709229420321	37.884445553711	427.713926971676	791.715293443398	35.797007194815	349.023264438284	875.357932289545	94.601890572049	380.132034443749	1003.645127955033	42.414125434927	352.009746390675	915.606953694325	1071.855675315430	135.601014650072	1055.679197225458	852.191863020436	151.242458907465	857.620325494847	1069.836429018974	708.211416786158	972.093263946809	835.413383732224	708.588549044063	
108	6.360000000000	677.365060469988	983.219155398654	435.515714777878	860.991443367548	1418.256383025017	259.621955913816	950.843739459603	1352.504600097080	429.116802739205	853.143575918397	1423.395048102934	596.417858141660	833.657516266885	1482.397576967249	417.342761994981	903.830729719763	934.800754313144	567.496385665985	906.564968317208	949.448716152530	292.979593472939	992.324632316303	758.413199814803	532.368041905113	950.431636540275	636.739465396326	599.089480818590	1036.177236810196	597.984840239516	514.199238633058	1054.147208345503	485.062110720734	538.056900966407	968.191311157493	741.323610646964	338.442202678884	892.269300552400	614.589132997585	285.235922867927	974.646491520006	546.167488057585	362.491822112684	977.005591703891	472.340810268367	375.794603502195	936.621951585067	397.790304900663	368.636348884817	835.483071458649	295.248619836791	314.075429140752	859.224092143751	181.383776689252	391.874417420376	977.432789828533	411.333838556650	550.665127094041	853.234548693889	371.665298352727	605.861257472495	847.308038681005	258.557559103796	565.546030187370	651.789783267945	183.971004859048	525.287120072473	817.985522660981	141.950827505943	590.360650867927	705.950323509241	141.085387222919	612.536674640320	882.938511987725	38.469061872736	639.316690025230	709.706559790315	37.983137709023	427.668807843754	785.744835106558	35.837365016415	349.014199896844	869.492825529482	94.493677280450	380.181276258714	997.729396528854	42.015247515996	351.966842592457	922.928901801543	1074.446950636689	134.391913262048	1074.124935959003	862.026873494930	151.581126577785	838.277880348968	1068.937229857576	708.396529408477	933.754927560464	825.608197013925	711.512774868229	
109	6.380000000000	677.065976506776	983.716429473807	433.356402281351	863.735956370659	1419.508526715286	260.872934201993	951.023359671896	1352.886146849608	431.319604436480	850.760416793475	1422.741666023464	597.651618771971	834.394791379016	1482.886364594954	418.641466202779	902.474928446578	935.656302764253	567.640649233322	907.553477130750	949.688682756167	293.090953119503	992.420847759480	760.672710827103	531.998664589058	951.872342984535	638.856698494278	599.049391470585	1037.492968777614	600.763946669637	513.891095038889	1057.798509170709	489.206234576518	537.911825660671	967.150411574578	740.372132430482	338.611887862461	890.123953711837	614.272904296184	285.069440939810	971.431938790733	545.145108391447	362.698609387383	973.145067643746	471.421162169463	376.072118067822	932.351351181111	397.175245333300	368.725240292651	830.788222834572	295.086629151529	314.072597797867	853.777781703405	181.111245515109	391.915390017784	984.228827589984	413.432021755083	551.078167603077	862.621999769962	368.116187877570	606.800617522723	861.929229660222	254.977809825554	566.503403281198	670.320239849720	169.038211641152	527.504180532661	839.109623026474	138.508614348242	591.282553944585	727.847870177847	130.089858554673	614.381510969873	911.072334492653	40.164338606162	639.770671389035	703.688858753020	38.077550124860	427.620595573131	779.748899926108	35.870639919305	348.998817787464	863.577967288931	94.426016833807	380.169717462406	991.775237042794	41.707076340766	351.919219310312	930.065740930811	1077.634601963592	133.304381039840	1092.282022026647	873.258524935123	152.146237209259	818.688504486268	1069.887066987331	708.476052486733	895.938896888090	819.829613079781	714.105486040822	
110	6.400000000000	676.914617377026	984.957158952926	431.572535318335	866.756719125638	1421.218327529072	262.299874726494	951.432368872376	1353.794701725023	433.700596141121	848.702284736486	1422.944448359431	598.906695779638	835.395793079057	1483.925381278493	419.991345069549	901.087605798996	937.015393895491	568.140922664397	908.563351470865	950.463815335423	293.583081675324	991.882563767324	762.993008005018	532.210510489372	952.079696681193	641.131699732868	599.604006878067	1037.573506747925	603.423988635799	514.408643384585	1060.005445461466	493.607959196631	538.565463793002	965.477543470099	739.639917128794	339.072470263527	886.974862481718	614.458516813526	284.975101454980	966.962597015220	544.369386787313	362.854797494485	967.837241077030	470.874238036951	376.238510478077	926.924663147210	397.031300401029	368.670670894511	825.234888299743	295.112113806483	313.972693605654	847.920801159083	181.101490722052	391.872818556551	990.173709388655	415.745166899872	552.142411227403	871.927899702280	364.034301450731	608.518161778200	877.193435240921	251.201673430994	567.999101049761	690.762374838043	153.092214051968	530.262062737975	861.663243473323	134.819286000071	592.560887919836	751.732816807133	118.351764785474	616.607748359990	940.837021769717	42.331874272763	640.264761062904	697.657944029783	38.166185087817	427.568396236286	773.728547125254	35.897572423267	348.979051457059	857.617358906561	94.399644059617	380.106551474843	985.784625132829	41.486273826629	351.872384688627	937.063962874261	1081.359003354959	132.355991520809	1110.042674549478	885.809917402592	152.941919138706	799.128915918799	1072.638943143301	708.367604935565	859.252080814273	817.776670337673	716.315436231350	
111	6.420000000000	676.881945674310	986.819161276986	430.150985611667	870.034238015760	1423.274784419705	263.897400356555	952.054101155502	1355.124736442853	436.256148399324	846.974788585167	1423.909534139661	600.189837166741	836.646579199735	1485.415391027856	421.393478785225	899.645863005101	938.782187546067	569.004965544578	909.595665885710	951.670312108672	294.457448167272	990.720795266077	765.259353299708	533.072385090464	951.030565329296	643.432494296397	600.780826789306	1036.447337862746	605.851641505071	515.813647285920	1060.750761428918	498.133177729435	540.042541716851	963.216834090981	739.097336875442	339.863544687827	882.944199952897	615.096983032101	284.958994353197	961.359402173820	543.825644935365	362.989244574898	961.215497856656	470.675888830685	376.318377045114	920.465358401618	397.314697201654	368.498347035362	818.921730795610	295.306816091779	313.789222832499	841.698958696675	181.325267260064	391.766595162277	995.196289129389	418.222636229121	553.834607108034	881.093679667605	359.581140497323	610.970620633972	892.880462640216	247.472329392949	569.977162554448	712.896985974895	136.828960964879	533.479493589428	885.266925380794	131.158362083228	594.085966974214	777.288827461011	106.387720916563	619.084833038527	971.597730146676	45.063137955104	640.591798994158	691.614880537970	38.246028568065	427.512844995777	767.685665944213	35.918307332041	348.956439068765	851.616151552667	94.411400424502	380.004490007773	979.760457123009	41.346242950763	351.832034218446	943.970796141009	1085.513214693113	131.567667098585	1127.319320142732	899.544454259863	153.973616342458	779.936997081175	1077.030753173306	708.026586605387	824.260310602265	818.979085908128	718.094278656515	
